<svg width="1440" height="904" viewBox="0 0 1440 904" fill="none" xmlns="http://www.w3.org/2000/svg">
<g filter="url(#filter0_d)">
<rect width="1440" height="896" fill="#D5FAFC"/>
<g opacity="0.3" clip-path="url(#clip0)">
<path fill-rule="evenodd" clip-rule="evenodd" d="M307.373 82.7419C286.049 93.1541 275.387 105.388 275.387 119.445C284.476 120.486 291.992 124.174 297.934 130.508C303.877 136.842 306.849 144.173 306.849 152.503C306.849 161.354 303.965 168.816 298.197 174.889C292.428 180.963 285.175 184 276.435 184C266.647 184 258.17 180.052 251.004 172.156C243.837 164.26 240.254 154.673 240.254 143.393C240.254 109.553 259.306 83.089 297.41 64L307.373 82.7419ZM232.119 82.7419C210.62 93.1541 199.87 105.388 199.87 119.445C209.134 120.486 216.737 124.174 222.68 130.508C228.623 136.842 231.594 144.173 231.594 152.503C231.594 161.354 228.667 168.816 222.811 174.889C216.956 180.963 209.658 184 200.919 184C191.131 184 182.697 180.052 175.618 172.156C168.539 164.26 165 154.673 165 143.393C165 109.553 183.964 83.089 221.894 64L232.119 82.7419Z" fill="#2EC5CE"/>
</g>
</g>
<defs>
<filter id="filter0_d" x="-4" y="0" width="1448" height="904" filterUnits="userSpaceOnUse" color-interpolation-filters="sRGB">
<feFlood flood-opacity="0" result="BackgroundImageFix"/>
<feColorMatrix in="SourceAlpha" type="matrix" values="0 0 0 0 0 0 0 0 0 0 0 0 0 0 0 0 0 0 127 0"/>
<feOffset dy="4"/>
<feGaussianBlur stdDeviation="2"/>
<feColorMatrix type="matrix" values="0 0 0 0 0 0 0 0 0 0 0 0 0 0 0 0 0 0 0.25 0"/>
<feBlend mode="normal" in2="BackgroundImageFix" result="effect1_dropShadow"/>
<feBlend mode="normal" in="SourceGraphic" in2="effect1_dropShadow" result="shape"/>
</filter>
<clipPath id="clip0">
<rect width="143" height="120" fill="white" transform="translate(165 64)"/>
</clipPath>
</defs>
</svg>
